<?xml version="1.0" encoding="iso-8859-1"?>
<!-- Uploaded to: SVG Repo, www.svgrepo.com, Generator: SVG Repo Mixer Tools -->
<svg fill="#000000" height="800px" width="800px" version="1.1" id="Layer_1" xmlns="http://www.w3.org/2000/svg" xmlns:xlink="http://www.w3.org/1999/xlink" 
	 viewBox="0 0 392.727 392.727" xml:space="preserve">
<g>
	<g>
		<path d="M381.802,322.457H10.99c-6.012,0-10.925,4.849-10.925,10.925v48.42c0,6.012,4.848,10.925,10.925,10.925h370.747
			c6.012,0,10.925-4.849,10.925-10.925v-48.42C392.663,327.305,387.814,322.457,381.802,322.457z M21.915,370.877v-26.634h348.962
			l0,26.634H21.915z"/>
	</g>
</g>
<g>
	<g>
		<path d="M381.673,134.271h-26.634V96c0-13.382-8.016-25.277-20.493-30.384c-31.418-12.929-63.224-21.527-94.578-25.729
			C238.028,19.071,217.859,0,196.073,0c-22.562,0-41.244,17.648-43.378,39.628c-31.677,4.073-63.547,12.8-94.707,25.859
			C45.64,70.659,37.689,82.554,37.689,95.806v38.529H10.99c-6.012,0-10.925,4.849-10.925,10.925
			c0.065,6.012,4.913,10.861,10.925,10.861h26.634v120.436c0,18.036,14.675,32.711,32.711,32.711h251.992
			c18.036,0,32.711-14.675,32.711-32.711V156.121h26.634c6.012,0,10.925-4.849,10.925-10.925
			C392.598,139.184,387.749,134.271,381.673,134.271z M59.475,95.935c0-4.396,2.715-8.404,6.853-10.214
			c32.517-13.576,65.745-22.174,98.586-25.406c3.038-0.323,10.085-2.909,9.632-12.671c-0.259-1.422,0.453-25.794,21.721-25.794
			c11.83,0,21.786,10.408,21.786,25.794c0,3.038-0.194,10.408,9.632,12.671c32.582,3.297,65.745,11.895,98.586,25.406
			c4.267,1.681,6.982,5.689,6.982,10.214v7.758H59.475V95.935z M333.317,276.622c0,6.012-4.848,10.925-10.925,10.925H70.335
			c-6.012,0-10.925-4.848-10.925-10.925V125.608h0.065h273.842V276.622z"/>
	</g>
</g>
<g>
	<g>
		<path d="M236.8,144.679h-80.808c-10.731,0-11.378,9.826-10.667,13.059l13.188,67.103c1.034,5.107,5.495,8.792,10.667,8.792h54.303
			c5.172,0,9.632-3.685,10.667-8.792l13.317-67.103C248.113,154.57,248.372,144.679,236.8,144.679z M214.562,211.846h-36.396
			l-8.986-45.188h54.303v-0.065h0.065L214.562,211.846z"/>
	</g>
</g>
</svg>